<?xml version="1.0" encoding="UTF-8"?>
<svg id="Layer_2" data-name="Layer 2" xmlns="http://www.w3.org/2000/svg" viewBox="0 0 175.85 175.85">
  <defs>
    <style>
      .cls-1 {
        fill: #fff;
        stroke-width: 0px;
      }
    </style>
  </defs>
  <g id="Layer_1-2" data-name="Layer 1">
    <path class="cls-1" d="m159.79,69.98c-4.12-3.8-8.71-7.07-13.71-9.61-5.46-2.8-11.36-4.7-17.36-5.61-4.2-.65-8.43-.78-12.61-.47-3.79.28-7.52,1.13-11.01,2.63-6.71,2.88-12.92,7.29-16.74,13.64-.16.26-.35.59-.44.8-1.38,3.3-1.85,6.96-2.04,10.73-.47-.54-.94-1.09-1.39-1.64-2.99-3.82-3.72-8.85-2.77-13.71.14-1.17.53-2.58,1.06-4.04,2.31-6.4,6.53-11.95,11.96-16.04,5.44-4.09,11.64-6.99,18.16-8.39,7.88-1.74,16.76-3.21,27.95,2.11,4.88,2.32,8.86,6.18,11.52,10.89,3.28,5.8,5.8,12.09,7.43,18.73m-33.49-45.67c-5.59.23-11.15,1.16-16.47,2.89-5.84,1.88-11.36,4.71-16.24,8.31-3.97,2.9-7.47,6.33-10.5,10.09-1.75,2.17-3.18,4.58-4.26,7.14-2.99,7.04-4.48,14.93-2.6,22.48.07.3.17.66.26.87,1.36,3.31,3.61,6.22,6.14,9.03-.72-.05-1.44-.1-2.14-.18-4.82-.59-8.88-3.63-11.66-7.74-.73-.92-1.45-2.2-2.11-3.61-2.89-6.16-3.83-13.06-2.89-19.8.95-6.74,3.29-13.17,6.91-18.78,4.35-6.82,9.61-14.16,21.33-18.3,5.12-1.81,10.7-1.87,15.93-.4,6.51,1.83,12.66,4.53,18.31,7.97m-55.95-8.63c-3.8,4.12-7.07,8.71-9.61,13.71-2.8,5.46-4.7,11.36-5.61,17.36-.65,4.2-.78,8.43-.47,12.6.28,3.79,1.13,7.53,2.63,11.02,2.88,6.71,7.29,12.92,13.64,16.74.26.16.59.35.8.44,3.3,1.38,6.96,1.85,10.73,2.04-.54.47-1.09.94-1.64,1.39-3.82,2.99-8.85,3.72-13.72,2.77-1.18-.14-2.61-.54-4.09-1.08-6.39-2.32-11.93-6.54-16.01-11.97-4.08-5.43-6.97-11.62-8.38-18.14-1.74-7.88-3.21-16.76,2.11-27.95,2.32-4.88,6.18-8.86,10.89-11.52,5.8-3.28,12.09-5.8,18.73-7.43m-34.47,66.2c2.9,3.96,6.32,7.46,10.08,10.49,2.17,1.75,4.59,3.18,7.15,4.27,7.04,2.99,14.93,4.48,22.49,2.6.3-.07.66-.17.87-.26,3.31-1.36,6.22-3.61,9.03-6.14-.05.72-.1,1.44-.18,2.14-.59,4.82-3.63,8.88-7.74,11.66-.92.73-2.2,1.45-3.61,2.11-6.16,2.89-13.06,3.83-19.8,2.89-6.74-.95-13.17-3.29-18.78-6.91-6.82-4.35-14.16-9.6-18.3-21.33-1.81-5.12-1.87-10.7-.4-15.93,1.83-6.51,4.53-12.66,7.97-18.31.23,5.59,1.16,11.15,2.89,16.47,1.88,5.84,4.71,11.36,8.31,16.24m-19.83,23.23c4.12,3.8,8.71,7.07,13.71,9.61,5.46,2.8,11.36,4.7,17.36,5.61,4.2.65,8.44.78,12.61.47,3.79-.28,7.52-1.13,11.01-2.63,6.71-2.88,12.92-7.29,16.74-13.64.16-.26.35-.59.44-.8,1.38-3.3,1.85-6.96,2.04-10.73.47.54.94,1.09,1.39,1.64,2.99,3.82,3.72,8.85,2.77,13.71-.14,1.17-.53,2.58-1.06,4.04-2.31,6.4-6.53,11.95-11.96,16.04-5.44,4.09-11.64,6.99-18.16,8.39-7.88,1.74-16.76,3.21-27.95-2.11-4.88-2.32-8.86-6.18-11.52-10.89-3.28-5.8-5.8-12.09-7.43-18.73m33.49,45.67c5.59-.23,11.15-1.16,16.47-2.89,5.84-1.88,11.36-4.71,16.24-8.31,3.96-2.9,7.47-6.32,10.5-10.08,1.75-2.17,3.18-4.58,4.27-7.15,2.99-7.04,4.48-14.93,2.6-22.49-.07-.3-.17-.66-.26-.87-1.36-3.31-3.61-6.22-6.14-9.03.72.05,1.43.1,2.14.18,4.82.59,8.88,3.63,11.66,7.74.8,1.01,1.58,2.43,2.29,3.99,2.74,6.02,3.63,12.74,2.72,19.29-.94,6.78-3.28,13.26-6.92,18.9-4.35,6.82-9.61,14.16-21.33,18.3-5.12,1.81-10.7,1.87-15.93.4-6.51-1.83-12.66-4.53-18.31-7.97m55.95,8.63c3.8-4.12,7.07-8.71,9.61-13.71,2.8-5.46,4.7-11.36,5.61-17.36.65-4.2.78-8.44.47-12.62-.28-3.78-1.13-7.51-2.63-11-2.88-6.71-7.29-12.92-13.64-16.74-.26-.16-.59-.35-.8-.44-3.3-1.38-6.96-1.85-10.73-2.04.54-.47,1.09-.94,1.64-1.39,3.82-2.99,8.85-3.72,13.71-2.77,1.27.15,2.82.6,4.41,1.2,5.93,2.22,11.16,6.06,15.07,11.05,4.41,5.62,7.52,12.1,8.99,18.93,1.74,7.88,3.21,16.76-2.11,27.95-2.32,4.88-6.18,8.86-10.89,11.52-5.8,3.28-12.09,5.8-18.73,7.43m34.47-66.2c-2.9-3.96-6.33-7.47-10.09-10.5-2.17-1.75-4.58-3.18-7.15-4.27-7.04-2.99-14.93-4.48-22.48-2.6-.3.07-.66.17-.87.26-3.31,1.36-6.22,3.61-9.03,6.14.05-.72.1-1.43.18-2.14.59-4.82,3.63-8.88,7.74-11.66.93-.74,2.22-1.46,3.64-2.13,6.15-2.88,13.05-3.82,19.78-2.87,6.74.95,13.16,3.29,18.76,6.9,6.82,4.35,14.16,9.61,18.3,21.33,1.81,5.12,1.87,10.7.4,15.93-1.83,6.51-4.53,12.66-7.97,18.31-.23-5.59-1.16-11.15-2.89-16.47-1.88-5.84-4.71-11.36-8.31-16.24m35.89-5.28C175.85,39.37,136.49,0,87.93,0S0,39.37,0,87.93s39.37,87.93,87.93,87.93,87.93-39.37,87.93-87.93"/>
  </g>
</svg>