<?xml version="1.0" encoding="UTF-8"?>
<svg id="Layer_2" data-name="Layer 2" xmlns="http://www.w3.org/2000/svg" viewBox="0 0 605.65 119.09">
  <defs>
    <style>
      .cls-1 {
        fill: #fff;
        stroke-width: 0px;
      }
    </style>
  </defs>
  <g id="Layer_1-2" data-name="Layer 1">
    <g>
      <path class="cls-1" d="m0,2.4h24.62l31.97,87.92h.32L88.72,2.4h24.62v114.29h-18.54V30.05h-.32l-30.21,86.64h-15.19L18.86,30.05h-.32v86.64H0V2.4Z"/>
      <path class="cls-1" d="m129.31,59.47c0-34.37,21.58-59.47,56.11-59.47s56.11,25.1,56.11,59.47-21.74,59.62-56.11,59.62-56.11-25.26-56.11-59.62Zm93.19,0c0-23.02-10.87-43.16-37.09-43.16s-37.24,20.14-37.24,43.16,11.03,43.32,37.24,43.32,37.09-20.14,37.09-43.32Z"/>
      <path class="cls-1" d="m334.4,2.4v16.15l-64.1,81.68v.32h65.7v16.15h-88.88v-16.15l64.1-81.68v-.32h-60.9V2.4h84.08Z"/>
      <path class="cls-1" d="m377.23,92.87l-7.35,23.82h-28.77L382.51,2.4h28.77l41.24,114.29h-28.77l-7.35-23.82h-39.16Zm32.77-21.9l-12.95-42.2h-.32l-12.95,42.2h26.21Z"/>
      <path class="cls-1" d="m489.44,2.4v114.29h-28.77V2.4h28.77Z"/>
      <path class="cls-1" d="m555.94,16.3c-24.62,0-34.37,20.62-34.37,43.16s9.75,43.32,34.37,43.32c21.26,0,29.41-13.91,30.69-27.81h19.02c-2.56,25.74-20.14,44.12-49.23,44.12-32.93,0-53.71-25.1-53.71-59.62S523.49,0,556.42,0c28.93,0,46.52,18.38,49.23,41.72h-19.02c-2.08-11.51-9.59-25.42-30.69-25.42Z"/>
    </g>
  </g>
</svg>